<svg width="17" height="14" viewBox="0 0 17 14" fill="none" xmlns="http://www.w3.org/2000/svg">
<g clip-path="url(#clip0_150_48)">
<path d="M9.71434 14.0005C9.4036 14.0005 9.09287 13.8867 8.85572 13.6589C8.38143 13.2032 8.38143 12.4647 8.85572 12.009L12.8541 8.16735H1.21416C0.54351 8.16735 0 7.64515 0 7.0008C0 6.35645 0.54351 5.83425 1.21416 5.83425H12.8541L8.85572 1.99265C8.38143 1.53695 8.38143 0.798452 8.85572 0.342752C9.33002 -0.112948 10.0987 -0.112948 10.573 0.342752L16.6445 6.1762C16.7709 6.29765 16.8634 6.43905 16.9224 6.58955C16.9628 6.69245 16.9883 6.80235 16.9971 6.9168C16.9971 6.91715 16.9971 6.9175 16.9971 6.91785C16.9971 6.9182 16.9971 6.9189 16.9971 6.91925C16.9989 6.94655 17 6.97385 17 7.00115C17 7.02845 16.9989 7.05575 16.9971 7.08305V7.08445C16.9971 7.08445 16.9971 7.08515 16.9971 7.0855C16.9887 7.19995 16.9628 7.30985 16.9224 7.41275C16.8634 7.5636 16.7709 7.705 16.6445 7.8261L10.573 13.6596C10.3358 13.8874 10.0251 14.0012 9.71434 14.0012V14.0005Z" fill="#3C65C7"/>
</g>
<defs>
<clipPath id="clip0_150_48">
<rect width="17" height="14" fill="white"/>
</clipPath>
</defs>
</svg>
