<svg width="15" height="15" viewBox="0 0 15 15" fill="none" xmlns="http://www.w3.org/2000/svg">
<g clip-path="url(#clip0_29_42)">
<path d="M7.5 15C9.48912 15 11.3968 14.2098 12.8033 12.8033C14.2098 11.3968 15 9.48912 15 7.5C15 5.51088 14.2098 3.60322 12.8033 2.1967C11.3968 0.790176 9.48912 0 7.5 0C5.51088 0 3.60322 0.790176 2.1967 2.1967C0.790176 3.60322 0 5.51088 0 7.5C0 9.48912 0.790176 11.3968 2.1967 12.8033C3.60322 14.2098 5.51088 15 7.5 15ZM8.98535 9.52441L4.75781 11.1504C4.18945 11.3701 3.62988 10.8105 3.84961 10.2422L5.47559 6.01465C5.57227 5.76562 5.76562 5.57227 6.01465 5.47559L10.2422 3.84961C10.8105 3.62988 11.3701 4.18945 11.1504 4.75781L9.52441 8.98535C9.43066 9.23438 9.23438 9.42773 8.98535 9.52441ZM8.4375 7.5C8.4375 7.25136 8.33873 7.0129 8.16291 6.83709C7.9871 6.66127 7.74864 6.5625 7.5 6.5625C7.25136 6.5625 7.0129 6.66127 6.83709 6.83709C6.66127 7.0129 6.5625 7.25136 6.5625 7.5C6.5625 7.74864 6.66127 7.9871 6.83709 8.16291C7.0129 8.33873 7.25136 8.4375 7.5 8.4375C7.74864 8.4375 7.9871 8.33873 8.16291 8.16291C8.33873 7.9871 8.4375 7.74864 8.4375 7.5Z" fill="white"/>
</g>
<defs>
<clipPath id="clip0_29_42">
<rect width="15" height="15" fill="white"/>
</clipPath>
</defs>
</svg>
