<svg width="109" height="20" viewBox="0 0 109 20" fill="none" xmlns="http://www.w3.org/2000/svg">
<g clip-path="url(#clip0_156_30)">
<path d="M19.4274 7.34383C19.2819 6.91094 18.9074 6.59536 18.4562 6.52631L13.2064 5.72413L10.8485 0.700697C10.6473 0.272507 10.2176 0 9.74562 0C9.27363 0 8.84372 0.272507 8.64275 0.700697L6.2843 5.72463L1.03453 6.5268C0.583576 6.59586 0.208858 6.91118 0.0635739 7.34432C-0.0814624 7.77746 0.0279336 8.25441 0.346964 8.58187L4.18078 12.5133L3.27269 18.0751C3.19794 18.5354 3.39298 18.9983 3.77388 19.2676C4.15454 19.5366 4.65697 19.5641 5.06609 19.3381L9.74562 16.7501L14.4251 19.3381C14.6098 19.4403 14.8132 19.4903 15.0154 19.4903C15.2617 19.4903 15.508 19.4153 15.7174 19.2676C16.0983 18.9988 16.293 18.5359 16.2183 18.0751L15.3102 12.5133L19.1443 8.58187C19.4626 8.25466 19.5722 7.77746 19.4269 7.34408L19.4274 7.34383Z" fill="#F2DD20"/>
</g>
<g clip-path="url(#clip1_156_30)">
<path d="M41.8049 7.34383C41.6593 6.91094 41.2849 6.59536 40.8337 6.52631L35.5839 5.72413L33.2259 0.700697C33.0247 0.272507 32.595 0 32.1231 0C31.6511 0 31.2212 0.272507 31.0202 0.700697L28.6617 5.72463L23.412 6.5268C22.961 6.59586 22.5863 6.91118 22.441 7.34432C22.296 7.77746 22.4054 8.25441 22.7244 8.58187L26.5582 12.5133L25.6501 18.0751C25.5754 18.5354 25.7704 18.9983 26.1513 19.2676C26.532 19.5366 27.0344 19.5641 27.4435 19.3381L32.1231 16.7501L36.8026 19.3381C36.9872 19.4403 37.1907 19.4903 37.3929 19.4903C37.6391 19.4903 37.8854 19.4153 38.0948 19.2676C38.4757 18.9988 38.6705 18.5359 38.5957 18.0751L37.6877 12.5133L41.5217 8.58187C41.84 8.25466 41.9496 7.77746 41.8044 7.34408L41.8049 7.34383Z" fill="#F2DD20"/>
</g>
<g clip-path="url(#clip2_156_30)">
<path d="M64.1823 7.34383C64.0368 6.91094 63.6623 6.59536 63.2111 6.52631L57.9613 5.72413L55.6034 0.700697C55.4022 0.272507 54.9725 0 54.5005 0C54.0285 0 53.5986 0.272507 53.3976 0.700697L51.0392 5.72463L45.7894 6.5268C45.3385 6.59586 44.9637 6.91118 44.8185 7.34432C44.6734 7.77746 44.7828 8.25441 45.1018 8.58187L48.9357 12.5133L48.0276 18.0751C47.9528 18.5354 48.1479 18.9983 48.5288 19.2676C48.9094 19.5366 49.4119 19.5641 49.821 19.3381L54.5005 16.7501L59.18 19.3381C59.3647 19.4403 59.5681 19.4903 59.7703 19.4903C60.0166 19.4903 60.2629 19.4153 60.4722 19.2676C60.8531 18.9988 61.0479 18.5359 60.9732 18.0751L60.0651 12.5133L63.8992 8.58187C64.2174 8.25466 64.3271 7.77746 64.1818 7.34408L64.1823 7.34383Z" fill="#F2DD20"/>
</g>
<g clip-path="url(#clip3_156_30)">
<path d="M86.5597 7.34383C86.4142 6.91094 86.0397 6.59536 85.5885 6.52631L80.3388 5.72413L77.9808 0.700697C77.7796 0.272507 77.3499 0 76.8779 0C76.406 0 75.976 0.272507 75.7751 0.700697L73.4166 5.72463L68.1668 6.5268C67.7159 6.59586 67.3412 6.91118 67.1959 7.34432C67.0509 7.77746 67.1603 8.25441 67.4793 8.58187L71.3131 12.5133L70.405 18.0751C70.3303 18.5354 70.5253 18.9983 70.9062 19.2676C71.2869 19.5366 71.7893 19.5641 72.1984 19.3381L76.8779 16.7501L81.5575 19.3381C81.7421 19.4403 81.9456 19.4903 82.1478 19.4903C82.394 19.4903 82.6403 19.4153 82.8497 19.2676C83.2306 18.9988 83.4254 18.5359 83.3506 18.0751L82.4425 12.5133L86.2766 8.58187C86.5949 8.25466 86.7045 7.77746 86.5592 7.34408L86.5597 7.34383Z" fill="#F2DD20"/>
</g>
<g clip-path="url(#clip4_156_30)">
<path d="M108.937 7.34383C108.792 6.91094 108.417 6.59536 107.966 6.52631L102.716 5.72413L100.358 0.700697C100.157 0.272507 99.7274 0 99.2554 0C98.7834 0 98.3535 0.272507 98.1525 0.700697L95.7941 5.72463L90.5443 6.5268C90.0933 6.59586 89.7186 6.91118 89.5733 7.34432C89.4283 7.77746 89.5377 8.25441 89.8567 8.58187L93.6905 12.5133L92.7825 18.0751C92.7077 18.5354 92.9027 18.9983 93.2836 19.2676C93.6643 19.5366 94.1667 19.5641 94.5759 19.3381L99.2554 16.7501L103.935 19.3381C104.12 19.4403 104.323 19.4903 104.525 19.4903C104.771 19.4903 105.018 19.4153 105.227 19.2676C105.608 18.9988 105.803 18.5359 105.728 18.0751L104.82 12.5133L108.654 8.58187C108.972 8.25466 109.082 7.77746 108.937 7.34408L108.937 7.34383Z" fill="#F2DD20"/>
</g>
<defs>
<clipPath id="clip0_156_30">
<rect width="19.4901" height="19.4901" fill="white"/>
</clipPath>
<clipPath id="clip1_156_30">
<rect width="19.4901" height="19.4901" fill="white" transform="translate(22.3774)"/>
</clipPath>
<clipPath id="clip2_156_30">
<rect width="19.4901" height="19.4901" fill="white" transform="translate(44.7549)"/>
</clipPath>
<clipPath id="clip3_156_30">
<rect width="19.4901" height="19.4901" fill="white" transform="translate(67.1323)"/>
</clipPath>
<clipPath id="clip4_156_30">
<rect width="19.4901" height="19.4901" fill="white" transform="translate(89.5098)"/>
</clipPath>
</defs>
</svg>
