<svg width="20" height="16" viewBox="0 0 20 16" fill="none" xmlns="http://www.w3.org/2000/svg">
<g clip-path="url(#clip0_192_412)">
<path fill-rule="evenodd" clip-rule="evenodd" d="M3.96808 0H16.0319C16.4705 0 16.8491 0 17.1623 0.0213001C17.492 0.0438003 17.822 0.0933006 18.1481 0.228301C18.8831 0.532803 19.4672 1.11691 19.7717 1.85191C19.9067 2.17771 19.9562 2.50772 19.9787 2.83772C20 3.15092 20 3.52952 20 3.96813V12.0322C20 12.4708 20 12.8494 19.9787 13.1626C19.9562 13.4923 19.9067 13.8223 19.7717 14.1484C19.4672 14.8834 18.8831 15.4675 18.1481 15.772C17.822 15.907 17.4923 15.9565 17.1623 15.979C16.8491 16.0003 16.4705 16.0003 16.0319 16.0003H3.96808C3.52948 16.0003 3.15088 16.0003 2.83769 15.979C2.50799 15.9565 2.17799 15.907 1.85189 15.772C1.11689 15.4675 0.532797 14.8834 0.228299 14.1484C0.0932995 13.8223 0.0437998 13.4926 0.0212999 13.1626C0 12.8491 0 12.4708 0 12.0322V3.96813C0 3.52952 0 3.15092 0.0212999 2.83772C0.0437998 2.50802 0.0932995 2.17801 0.228299 1.85191C0.532797 1.11691 1.11689 0.532803 1.85189 0.228301C2.17769 0.0933006 2.50769 0.0438003 2.83769 0.0213001C3.15088 0 3.52948 0 3.96808 0ZM2.31749 2.27791C2.68109 1.86241 3.31288 1.82011 3.72868 2.18371L9.34165 7.09504C9.71875 7.42505 10.2815 7.42505 10.6586 7.09504L16.2716 2.18371C16.6871 1.82011 17.3189 1.86211 17.6825 2.27791C18.0461 2.69342 18.0041 3.32522 17.5886 3.68912L11.9756 8.60045C10.8446 9.59016 9.15565 9.59016 8.02466 8.60045L2.41139 3.68882C1.99589 3.32522 1.95359 2.69342 2.31719 2.27761L2.31749 2.27791Z" fill="white"/>
</g>
<defs>
<clipPath id="clip0_192_412">
<rect width="20" height="16" fill="white"/>
</clipPath>
</defs>
</svg>
