<svg width="15" height="15" viewBox="0 0 15 15" fill="none" xmlns="http://www.w3.org/2000/svg">
<g clip-path="url(#clip0_29_40)">
<path d="M10.1687 0.720387C10.3943 0.175465 10.989 -0.114574 11.5574 0.0406996L14.1355 0.743825C14.6453 0.88445 14.9997 1.34734 14.9997 1.87468C14.9997 9.12273 9.12279 14.9997 1.87475 14.9997C1.3474 14.9997 0.884511 14.6452 0.743886 14.1354L0.0407607 11.5573C-0.114513 10.9889 0.175526 10.3942 0.720448 10.1686L3.53295 8.99675C4.01049 8.79754 4.5642 8.93523 4.88939 9.3366L6.07299 10.7809C8.13549 9.80535 9.80541 8.13543 10.781 6.07293L9.33666 4.89226C8.93529 4.56414 8.7976 4.01336 8.99682 3.53582L10.1687 0.723317V0.720387Z" fill="white"/>
</g>
<defs>
<clipPath id="clip0_29_40">
<rect width="15" height="15" fill="white"/>
</clipPath>
</defs>
</svg>
