<svg width="51" height="39" viewBox="0 0 51 39" fill="none" xmlns="http://www.w3.org/2000/svg">
<g clip-path="url(#clip0_156_83)">
<path d="M4.52794 3.36192C1.58139 6.48175 2.53696e-06 9.98054 2.04113e-06 15.6522C1.16868e-06 25.6319 7.02744 34.5773 17.2468 39L19.8013 35.0709C10.2623 29.9262 8.39775 23.2512 7.65382 19.0423C9.18973 19.8353 11.2001 20.1116 13.1711 19.9294C18.3306 19.453 22.3977 15.2304 22.3977 9.98055C22.3977 4.46887 17.9161 1.56628e-06 12.3868 1.08289e-06C9.31758 8.14569e-07 6.38305 1.39695 4.52708 3.36192L4.52794 3.36192ZM33.1294 3.36192C30.1837 6.48175 28.6014 9.98055 28.6014 15.6522C28.6014 25.6327 35.6289 34.5773 45.8483 39L48.4027 35.0709C38.8637 29.9271 36.9992 23.2512 36.2552 19.0423C37.7912 19.8353 39.8016 20.1117 41.7725 19.9294C46.932 19.453 50.9991 15.2304 50.9991 9.98055C50.9991 4.46888 46.5175 4.06669e-06 40.9883 3.58331e-06C37.919 3.31498e-06 34.9845 1.39695 33.1285 3.36192L33.1294 3.36192Z" fill="#D2E0FF"/>
</g>
<defs>
<clipPath id="clip0_156_83">
<rect width="51" height="39" fill="white" transform="matrix(1 8.74228e-08 8.74228e-08 -1 0 39)"/>
</clipPath>
</defs>
</svg>
