<svg width="40" height="33" viewBox="0 0 40 33" fill="none" xmlns="http://www.w3.org/2000/svg">
<g clip-path="url(#clip0_177_165)">
<path d="M8.95357 14.4827L8.17758 17.3696C7.98959 18.0699 7.95059 18.7947 8.02709 19.5109L5.82711 21.3155C5.41662 21.6522 4.80763 21.2886 4.91312 20.7696L5.87811 15.9954C5.94411 15.6681 5.71161 15.3553 5.37812 15.3234L0.51168 14.8532C-0.0178135 14.8019 -0.190311 14.1166 0.253183 13.8232L4.32513 11.127C4.60363 10.9422 4.66113 10.5572 4.44913 10.2996L1.34167 6.53902C1.00367 6.13008 1.36867 5.5239 1.89016 5.6285L6.6826 6.58983C7.0116 6.65558 7.32509 6.42396 7.35759 6.09173L7.82959 1.24376C7.88059 0.715783 8.56908 0.544438 8.86407 0.986249L11.5705 5.04175C11.756 5.31918 12.1425 5.37647 12.401 5.16527L16.176 2.07011C16.5865 1.73339 17.1945 2.097 17.0895 2.61602L16.3815 6.11265C16.212 6.30243 16.042 6.4917 15.887 6.69791L13.8775 9.37319L13.208 10.2648C11.1625 10.8102 9.50907 12.4146 8.95307 14.4822L8.95357 14.4827ZM39.8637 22.7331L39.0877 25.6196C38.8922 26.3468 38.5012 26.9649 37.9907 27.4476C37.8207 27.608 37.6377 27.7539 37.4432 27.8834L36.5687 31.1355C36.4972 31.4015 36.3752 31.6401 36.2157 31.8443C35.7362 32.4569 34.9197 32.7583 34.1198 32.5446L32.1878 32.0291C31.1208 31.7447 30.4878 30.6518 30.7733 29.5889L31.2908 27.6643L15.836 23.5385L15.3185 25.4632C15.033 26.5261 13.936 27.1567 12.869 26.8723L10.937 26.3568C10.1371 26.1431 9.58107 25.4751 9.47357 24.7061C9.43807 24.4496 9.45157 24.1816 9.52307 23.9166L10.3976 20.6645C10.2941 20.4553 10.2086 20.2377 10.1421 20.014C9.94206 19.3421 9.91406 18.6119 10.1096 17.8847L10.8855 14.9977C11.2175 13.7649 12.0955 12.829 13.191 12.3697C13.5595 12.2153 13.949 12.1162 14.3465 12.0759L15.4795 10.5671L17.489 7.89185C17.7045 7.60495 17.9385 7.33747 18.189 7.09241C18.689 6.60128 19.2534 6.19334 19.8599 5.87755C20.1634 5.71916 20.4779 5.58417 20.8004 5.47359C21.4459 5.25045 22.1249 5.12293 22.8154 5.09753C23.5059 5.07213 24.2099 5.14834 24.9049 5.33413L32.5723 7.3808C33.2673 7.56659 33.9148 7.85051 34.5003 8.21711C35.3742 8.76352 36.1147 9.49771 36.6682 10.3654C37.2197 11.2296 37.5832 12.2233 37.7107 13.2912L38.1082 16.609L38.3327 18.4799C38.9817 18.9466 39.4767 19.5956 39.7537 20.3433C40.0282 21.0829 40.0842 21.9118 39.8632 22.7336L39.8637 22.7331ZM15.974 15.3254C14.8145 15.0161 13.836 15.577 13.526 16.7281C13.216 17.8792 13.783 18.8524 14.9415 19.1618C16.101 19.4711 17.788 20.1276 18.097 18.976C18.407 17.8249 17.1325 15.6343 15.974 15.3249V15.3254ZM34.1373 17.0792L33.7398 13.7614C33.7033 13.4581 33.6218 13.1682 33.5008 12.8982C33.1383 12.0893 32.4258 11.4657 31.5368 11.2286L23.8694 9.18192C22.6844 8.86563 21.4254 9.29997 20.6904 10.2782L18.681 12.9535L29.4308 15.8225L34.1363 17.0787L34.1373 17.0792ZM35.2927 20.4817C34.1333 20.1724 31.9303 21.4351 31.6208 22.5857C31.3113 23.7368 33.1013 24.0087 34.2608 24.3186C35.4202 24.6284 36.3987 24.067 36.7087 22.9159C37.0182 21.7653 36.4517 20.7915 35.2927 20.4822V20.4817Z" fill="#3C65C7"/>
</g>
<defs>
<clipPath id="clip0_177_165">
<rect width="40" height="31.8786" fill="white" transform="translate(0 0.734375)"/>
</clipPath>
</defs>
</svg>
