<svg width="27" height="33" viewBox="0 0 27 33" fill="none" xmlns="http://www.w3.org/2000/svg">
<g clip-path="url(#clip0_177_162)">
<path d="M26.5681 9.30565C25.9319 5.51554 23.1905 2.08422 19.531 0.942623C17.1699 0.212 14.6581 0.388132 12.2184 0.792584C9.01791 1.32098 5.46328 2.53434 4.16473 5.48945C3.4761 7.05507 3.40396 8.81639 3.40396 10.519C3.40396 14.5766 0.000169757 15.4507 0.000169757 16.7358C-0.0260637 18.2036 2.99734 18.4058 2.71533 19.8671C2.59728 20.5259 1.75781 21.0804 2.05949 21.661C2.21034 21.9415 2.54481 22.0394 2.74812 22.2677C3.33182 22.9265 2.39397 23.8855 2.44644 24.7661C2.4989 25.8751 3.98109 26.4688 5.06322 26.1556C8.15877 25.2619 9.17531 27.4212 9.33271 28.0996C9.68686 29.463 9.7918 30.9047 9.6344 32.3203H21.0656C20.3114 22.3068 22.7905 20.7281 23.4004 20.0171C25.886 17.0359 27.2042 13.0697 26.5681 9.30565ZM24.4366 13.0958L21.7215 15.7964C21.2886 16.227 20.5541 16.227 20.1212 15.7964L11.2543 6.95721C10.8215 6.52667 10.8215 5.79605 11.2543 5.3655L13.9695 2.6909C14.4023 2.26035 15.1369 2.26035 15.5697 2.6909L24.43 11.504C24.8957 11.9346 24.8957 12.6717 24.4366 13.0958Z" fill="#3C65C7"/>
<path d="M15.6181 5.09677L13.6797 7.0249L19.68 12.9932L21.6184 11.0651L15.6181 5.09677Z" fill="#3C65C7"/>
</g>
<defs>
<clipPath id="clip0_177_162">
<rect width="26.7273" height="31.8786" fill="white" transform="translate(0 0.441406)"/>
</clipPath>
</defs>
</svg>
