<svg width="31" height="33" viewBox="0 0 31 33" fill="none" xmlns="http://www.w3.org/2000/svg">
<g clip-path="url(#clip0_177_172)">
<path fill-rule="evenodd" clip-rule="evenodd" d="M17.7139 19.1702H16.5586V18.018C16.5586 17.3815 16.0415 16.8657 15.4033 16.8657C14.7651 16.8657 14.248 17.3815 14.248 18.018V19.1702H13.0928C12.4546 19.1702 11.9375 19.6859 11.9375 20.3224C11.9375 20.9589 12.4546 21.4747 13.0928 21.4747H14.248V22.6269C14.248 23.2634 14.7651 23.7791 15.4033 23.7791C16.0415 23.7791 16.5586 23.2634 16.5586 22.6269V21.4747H17.7139C18.352 21.4747 18.8691 20.9589 18.8691 20.3224C18.8691 19.6859 18.352 19.1702 17.7139 19.1702Z" fill="#3C65C7"/>
<path fill-rule="evenodd" clip-rule="evenodd" d="M29.0025 9.83196C27.703 8.53592 25.8338 8.1732 22.7201 8.07134V7.95197C22.7201 6.57159 22.7201 5.42074 22.5972 4.50679C22.4673 3.54214 22.1813 2.67151 21.4793 1.97187C20.7778 1.27224 19.9049 0.986945 18.9377 0.857434C18.0218 0.734375 16.8679 0.734375 15.4839 0.734375H15.3236C13.9395 0.734375 12.7856 0.734375 11.8693 0.856973C10.9021 0.986484 10.0292 1.27178 9.32768 1.97141C8.6262 2.67105 8.34015 3.54214 8.2103 4.50633C8.08692 5.42028 8.08738 6.57113 8.08738 7.95151V8.07088C4.97415 8.17228 3.10445 8.53546 1.805 9.8315C0 11.6317 0 14.5285 0 20.3224C0 26.1163 0 29.013 1.80454 30.8128C3.60908 32.6126 6.5139 32.6126 12.3226 32.6126H18.4839C24.2931 32.6126 27.1975 32.6126 29.002 30.8128C30.8065 29.013 30.8065 26.1158 30.8065 20.3224C30.8065 14.5289 30.8065 11.6317 29.002 9.83196H29.0025ZM10.3975 8.03171C10.3975 6.55085 10.3998 5.55578 10.5001 4.81375C10.5957 4.10489 10.7607 3.80116 10.9617 3.60113C11.1623 3.40111 11.4668 3.23611 12.1775 3.1407C12.9215 3.04115 13.9192 3.03838 15.404 3.03838C16.8887 3.03838 17.8864 3.04069 18.6304 3.1407C19.3411 3.23611 19.6457 3.40065 19.8462 3.60113C20.0468 3.80116 20.2122 4.10489 20.3079 4.81375C20.4077 5.55578 20.4105 6.55085 20.4105 8.03171V8.03447C19.8065 8.03171 19.1655 8.03171 18.4848 8.03171H12.3235C11.6428 8.03171 11.0019 8.03171 10.3979 8.03447V8.03171H10.3975ZM15.4035 26.4675C12.0005 26.4675 9.24219 23.7159 9.24219 20.3224C9.24219 16.9288 12.001 14.1773 15.4035 14.1773C18.806 14.1773 21.5648 16.9288 21.5648 20.3224C21.5648 23.7159 18.806 26.4675 15.4035 26.4675Z" fill="#3C65C7"/>
</g>
<defs>
<clipPath id="clip0_177_172">
<rect width="30.8075" height="31.8786" fill="white" transform="translate(0 0.734375)"/>
</clipPath>
</defs>
</svg>
