<svg width="29" height="33" viewBox="0 0 29 33" fill="none" xmlns="http://www.w3.org/2000/svg">
<g clip-path="url(#clip0_177_170)">
<path fill-rule="evenodd" clip-rule="evenodd" d="M23.9731 11.5987H9.58923V8.41071C9.58923 7.5892 9.84574 6.3555 10.5664 5.35755C11.3944 4.2104 12.6789 3.62894 14.3838 3.62894C16.3573 3.62894 17.7616 4.40645 18.5585 5.94044C18.9646 6.72226 19.9293 7.02734 20.7127 6.62232C21.4962 6.21731 21.8025 5.25522 21.3964 4.47387C20.0453 1.87355 17.555 0.441406 14.3838 0.441406C10.9068 0.441406 8.97839 2.10212 7.97248 3.49505C6.50677 5.52539 6.39266 7.77091 6.39266 8.41118V11.5992H4.79461C2.14655 11.5987 0 13.7395 0 16.3805V27.5378C0 30.1788 2.14655 32.3196 4.79461 32.3196H23.9731C26.6211 32.3196 28.7677 30.1788 28.7677 27.5378V16.3805C28.7677 13.7395 26.6211 11.5987 23.9731 11.5987ZM15.9819 24.3503C15.9819 25.2306 15.2665 25.944 14.3838 25.944C13.5012 25.944 12.7858 25.2306 12.7858 24.3503V19.5685C12.7858 18.6882 13.5012 17.9747 14.3838 17.9747C15.2665 17.9747 15.9819 18.6882 15.9819 19.5685V24.3503Z" fill="#3C65C7"/>
</g>
<defs>
<clipPath id="clip0_177_170">
<rect width="28.7677" height="31.8786" fill="white" transform="translate(0 0.441406)"/>
</clipPath>
</defs>
</svg>
