<svg width="40" height="32" viewBox="0 0 40 32" fill="none" xmlns="http://www.w3.org/2000/svg">
<g clip-path="url(#clip0_177_153)">
<path d="M12.2728 11.0608C13.1478 12.6939 14.0155 14.3142 14.9078 15.9801C15.0575 15.8682 15.1646 15.7964 15.2627 15.7136C16.7558 14.4579 18.2526 13.2076 19.7366 11.9419C20.2658 11.4909 20.8358 11.3126 21.5356 11.4181C24.0916 11.8055 26.6522 12.1583 29.21 12.5365C30.2829 12.6948 30.9827 13.5859 30.8357 14.5679C30.6832 15.5872 29.8055 16.2274 28.7244 16.0764C26.4934 15.7655 24.2641 15.4445 22.0358 15.1126C21.7417 15.0689 21.5265 15.1153 21.2969 15.3126C20.185 16.2692 19.0577 17.2076 17.9376 18.1542C17.8278 18.2469 17.7261 18.3506 17.6571 18.5224C18.6138 18.3233 19.5959 18.2051 20.5208 17.9069C22.004 17.4277 22.9924 17.8505 23.8584 19.1453C25.16 21.0903 26.625 22.9262 28.0101 24.8166C28.846 25.9578 28.296 27.4417 26.9345 27.7027C26.1993 27.8437 25.5975 27.5672 25.1527 26.9671C23.892 25.2667 22.6266 23.5709 21.3831 21.8578C21.1635 21.555 20.9674 21.4795 20.5989 21.5604C18.1037 22.1078 15.603 22.6307 13.1024 23.1526C12.1457 23.3526 11.3978 23.0253 10.9312 22.1596C9.54794 19.5918 8.18461 17.013 6.81402 14.4388C6.70237 14.2287 6.59254 14.0169 6.45548 13.7577C5.78834 14.3242 5.15297 14.8525 4.53393 15.3999C4.43227 15.4899 4.39143 15.6609 4.34514 15.8018C3.93033 17.0648 3.5246 18.3306 3.10707 19.5927C2.78847 20.5575 1.94252 21.0139 1.05572 20.7148C0.197963 20.4247 -0.20323 19.5518 0.099026 18.6134C0.571018 17.1467 1.0303 15.6745 1.53951 14.2206C1.66749 13.8541 1.90984 13.4831 2.19939 13.2258C3.31674 12.231 4.4713 11.2772 5.62042 10.3179C5.79107 10.176 5.99802 10.0678 6.20315 9.97869C7.49114 9.41492 8.77369 8.83661 10.0771 8.31285C10.9294 7.97005 11.6447 7.43811 12.3971 6.93163C13.6724 6.07235 14.4512 4.9721 14.7326 3.45903C14.8778 2.67703 15.1746 1.9214 15.4224 1.15941C15.7183 0.251933 16.5552 -0.192714 17.4175 0.0773476C18.2734 0.34559 18.71 1.19396 18.4377 2.10599C17.9675 3.68453 17.5055 5.26489 16.9891 6.82797C16.8693 7.19078 16.596 7.54995 16.3001 7.7991C15.1202 8.79115 13.903 9.73954 12.6994 10.7043C12.5714 10.8071 12.4452 10.9144 12.2701 11.0598L12.2728 11.0608Z" fill="#3C65C7"/>
<path d="M28.7642 30.5122V31.9989H2.08301V30.5122H28.7633H28.7642Z" fill="#3C65C7"/>
<path d="M9.93875 5.30135C9.93875 7.21088 8.36937 8.77305 6.46688 8.7585C4.57801 8.74395 3.03042 7.19815 3.01862 5.31408C3.00682 3.4182 4.57438 1.84329 6.47778 1.83693C8.38934 1.83147 9.93965 3.38273 9.93965 5.30135H9.93875Z" fill="#3C65C7"/>
</g>
<defs>
<clipPath id="clip0_177_153">
<rect width="39.7363" height="32" fill="white"/>
</clipPath>
</defs>
</svg>
